<?xml version="1.0" encoding="UTF-8"?>
<svg width="40px" height="40px" viewBox="0 0 40 40" version="1.1" xmlns="http://www.w3.org/2000/svg" xmlns:xlink="http://www.w3.org/1999/xlink">
    <title>头像</title>
    <defs>
        <linearGradient x1="70.4138332%" y1="0%" x2="30.7817571%" y2="70.2487901%" id="linearGradient-1">
            <stop stop-color="#FF8282" offset="0%"></stop>
            <stop stop-color="#FF4B4B" offset="100%"></stop>
        </linearGradient>
    </defs>
    <g id="WEB登录" stroke="none" stroke-width="1" fill="none" fill-rule="evenodd">
        <g id="登录" transform="translate(-1026.000000, -335.000000)">
            <g transform="translate(1024.000000, 268.000000)" id="头像">
                <g transform="translate(2.000000, 67.000000)">
                    <rect id="Rectangle-3" fill="#E7E7E7" x="0" y="0" width="40" height="40" rx="2"></rect>
                    <path d="M20.5807229,20.6296124 C26.3558025,20.9759459 30.9323257,25.7691504 30.9323257,31.6312592 L30.9318889,39.9994444 L8.88888889,39.9994444 L8.88896237,31.6312592 C8.88896237,25.7692619 13.4653115,20.9761282 19.2402358,20.6296321 L18.5489744,22.7603125 L19.7849624,24.1434444 L17.8141956,30.842879 L19.910644,33.0685266 L22.0070924,30.842879 L20.0349624,24.1434444 L21.2723137,22.7603125 L20.5807229,20.6296124 Z M19.910644,4.44444444 C23.9687151,4.44444444 27.2584318,7.73416108 27.2584318,11.7922322 C27.2584318,15.8503033 23.9687151,19.14002 19.910644,19.14002 C15.8525729,19.14002 12.5628562,15.8503033 12.5628562,11.7922322 C12.5628562,7.73416108 15.8525729,4.44444444 19.910644,4.44444444 Z" id="形状结合" fill="url(#linearGradient-1)"></path>
                </g>
            </g>
        </g>
    </g>
</svg>