<?xml version="1.0" encoding="UTF-8"?>
<svg width="40px" height="30px" viewBox="0 0 40 30" version="1.1" xmlns="http://www.w3.org/2000/svg" xmlns:xlink="http://www.w3.org/1999/xlink">
    <title>礼物</title>
    <defs>
        <linearGradient x1="50%" y1="0%" x2="50%" y2="100%" id="linearGradient-1">
            <stop stop-color="#FF8E8E" offset="0%"></stop>
            <stop stop-color="#FF4949" offset="100%"></stop>
        </linearGradient>
    </defs>
    <g id="控件" stroke="none" stroke-width="1" fill="none" fill-rule="evenodd">
        <g id="注册流程" transform="translate(-649.000000, 0.000000)">
            <g id="礼物" transform="translate(649.000000, 0.000000)">
                <path d="M2,30 C0.8954305,30 1.3527075e-16,29.1045695 0,28 L0,16 C-1.09918013e-17,15.9102451 0.005912373,15.8218712 0.0173689022,15.7352463 C0.00595073531,15.4918101 3.01997888e-17,15.2466 0,15 C-1.01453063e-15,6.71572875 6.71572875,1.52179594e-15 15,0 L25,0 C33.2842712,2.54560899e-16 40,6.71572875 40,15 C40,23.2842712 33.2842712,30 25,30 L2,30 Z" id="形状结合" fill="url(#linearGradient-1)"></path>
                <path d="M22.0824059,6.00390625 C22.6325441,6.00390625 23.1325207,6.22269556 23.4923256,6.58058734 C23.8624442,6.94826522 24.082312,7.44549247 24.082312,7.99211625 L24.082312,7.99211625 L29.0825462,7.99211625 C29.6324501,7.99211625 30.0824993,8.43948097 30.0820312,8.98633775 L30.0820312,8.98633775 L30.0820312,12.9625247 C30.0820312,13.5091485 29.6322157,13.9565132 29.0820774,13.9565132 L29.0820774,13.9565132 L28.0821244,13.9565132 L28.0821244,22.9007787 C28.0821244,23.4497325 27.6344192,23.8947672 27.0821713,23.8947672 L27.0821713,23.8947672 L13.0818905,23.8947672 C12.5296426,23.8947672 12.0819374,23.4497325 12.0819374,22.9007787 L12.0819374,22.9007787 L12.0819374,13.9562802 L11.0819843,13.9562802 C10.5320805,13.9562802 10.0820312,13.5089155 10.0820312,12.9622917 L10.0820312,12.9622917 L10.0820312,8.98610475 C10.0820312,8.43948097 10.5318461,7.99211625 11.0819843,7.99211625 L11.0819843,7.99211625 L16.0819842,7.99211625 C16.0819842,6.88861659 16.9820826,6.00390625 18.0821247,6.00390625 C18.632263,6.00390625 19.1322395,6.22269556 19.4920445,6.58058734 C19.8623975,6.94826522 20.0822653,7.44549247 20.0822653,7.99211625 C20.0822653,6.88861659 20.9823637,6.00390625 22.0824059,6.00390625 Z M26.0824526,13.9565132 L14.082078,13.9565132 L14.082078,21.9067902 L26.0824526,21.9067902 L26.0824526,13.9565132 Z M21.4968731,15.9426262 C21.7528386,15.9426262 22.0088041,16.0397882 22.2040598,16.2338793 C22.5945712,16.6220614 22.5945712,17.251401 22.2040598,17.6395831 L22.2040598,17.6395831 L20.7896864,19.04552 C20.5944307,19.239611 20.3384652,19.3367731 20.0824997,19.3367731 C19.8265342,19.3367731 19.5705687,19.239611 19.375313,19.04552 L19.375313,19.04552 L17.9609396,17.6395831 C17.5704281,17.251401 17.5704281,16.6218284 17.9609396,16.2338793 C18.1561953,16.0397882 18.4121608,15.9426262 18.6681263,15.9426262 C18.9240918,15.9426262 19.1800573,16.0397882 19.375313,16.2338793 L19.375313,16.2338793 L20.0824997,16.9368477 L20.7896864,16.2338793 C20.9851765,16.0397882 21.2409076,15.9426262 21.4968731,15.9426262 Z M28.0823588,9.98032625 L12.0821718,9.98032625 L12.0821718,11.9685362 L13.0610288,11.9685362 L13.0610288,11.9685362 L13.0821249,11.9664392 L27.0824057,11.9664392 C27.0896721,11.9664392 27.0962353,11.9683032 27.1035017,11.9685362 L27.1035017,11.9685362 L28.0823588,11.9685362 L28.0823588,9.98032625 Z" id="形状结合" fill="#FFFFFF" fill-rule="nonzero"></path>
            </g>
        </g>
    </g>
</svg>